<?xml version="1.0" encoding="UTF-8"?>
<svg version="1.1" xmlns="http://www.w3.org/2000/svg" width="1024" height="1024">
<path d="M0 0 C337.92 0 675.84 0 1024 0 C1024 337.92 1024 675.84 1024 1024 C686.08 1024 348.16 1024 0 1024 C0 686.08 0 348.16 0 0 Z " fill="#FAFAFA" transform="translate(0,0)"/>
<path d="M0 0 C0.90183517 -0.00570007 1.80367035 -0.01140015 2.73283386 -0.01727295 C4.63982995 -0.026686 6.54684203 -0.03324217 8.45385742 -0.03710938 C11.30873863 -0.04671773 14.16286843 -0.07773565 17.01757812 -0.109375 C32.46340511 -0.1995259 47.12063216 1.48537066 61.98046875 5.890625 C63.28322754 6.27190552 63.28322754 6.27190552 64.61230469 6.66088867 C93.40268403 15.38311005 118.88736493 30.5191692 140.11328125 51.77734375 C141.59057633 53.25226376 143.08622221 54.70947822 144.61328125 56.1328125 C174.69702442 84.61513968 191.37535682 129.83281144 192.8828125 170.48046875 C193.18243344 184.92654603 192.4136403 199.03342244 189.54296875 213.203125 C189.37667969 214.02538574 189.21039062 214.84764648 189.0390625 215.69482422 C179.23250623 262.26688634 151.3947734 303.69170914 111.55908203 329.83520508 C80.92681832 349.4042095 48.39456611 358.65321793 12.16796875 358.640625 C10.78250351 358.64172775 10.78250351 358.64172775 9.36904907 358.64285278 C-5.77709962 358.61127274 -19.8399886 357.4694065 -34.45703125 353.203125 C-35.37661621 352.94080078 -36.29620117 352.67847656 -37.24365234 352.40820312 C-55.86243235 346.96834938 -72.28749788 338.82322228 -88.45703125 328.203125 C-83.62701192 322.38834444 -78.43796858 317.03379847 -73.08203125 311.703125 C-72.26992188 310.88714844 -71.4578125 310.07117188 -70.62109375 309.23046875 C-69.41453125 308.02583984 -69.41453125 308.02583984 -68.18359375 306.796875 C-67.46768066 306.08208984 -66.75176758 305.36730469 -66.01416016 304.63085938 C-64.0098773 302.72799621 -61.98179998 300.92987849 -59.88357544 299.13562012 C-55.05989144 294.9228236 -50.57103594 290.41299322 -46.07519531 285.85546875 C-44.69104751 284.45921815 -43.30689582 283.0629714 -41.92259645 281.66687107 C-40.45092759 280.1818591 -38.98046981 278.69565626 -37.51023102 277.20922852 C-34.43819899 274.10434827 -31.36001324 271.00561807 -28.28045654 267.90820312 C-27.22296488 266.84445226 -26.16547358 265.78070104 -25.10798264 264.71694946 C-24.57893373 264.18478443 -24.04988482 263.6526194 -23.50480413 263.10432816 C-16.34641204 255.90300701 -9.19276336 248.69706531 -2.05322266 241.47705078 C2.77921511 236.59024011 7.62040285 231.71228829 12.47191262 226.84440899 C15.03517414 224.27176249 17.59362092 221.69469611 20.14134979 219.10665894 C22.97380222 216.22950612 25.82521822 213.37191172 28.67871094 210.515625 C29.52138016 209.65340836 30.36404938 208.79119171 31.23225403 207.90284729 C32.39693459 206.74630898 32.39693459 206.74630898 33.58514404 205.56640625 C34.2568803 204.88876221 34.92861656 204.21111816 35.62070847 203.51293945 C37.54296875 202.203125 37.54296875 202.203125 39.64484596 202.36956024 C42.50679205 203.6263901 44.27160503 205.58226118 46.46337891 207.79882812 C46.93867538 208.27529282 47.41397186 208.75175751 47.90367126 209.24266052 C49.47020647 210.81637304 51.02595593 212.40032498 52.58203125 213.984375 C53.6693858 215.07986667 54.75748043 216.17462422 55.84628296 217.26867676 C58.70922872 220.14873564 61.56348658 223.03724625 64.41558838 225.92803955 C68.98572207 230.55738712 73.56861791 235.17409331 78.15205002 239.79026794 C79.75349967 241.40570342 81.35108938 243.02488058 82.94815063 244.64465332 C83.92580061 245.63232437 84.90352869 246.61991812 85.88134766 247.60742188 C86.73532135 248.47266479 87.58929504 249.33790771 88.46914673 250.22937012 C90.94362106 252.58444482 91.96825513 253.12649652 95.35546875 253.578125 C98.67936725 253.46281993 98.67936725 253.46281993 101.23046875 251.140625 C107.2089222 243.54637333 106.97477258 236.71927988 106.93115234 227.32910156 C106.93522193 225.92408338 106.94056597 224.51906841 106.94708252 223.11405945 C106.96071105 219.31472646 106.95547742 215.51563897 106.94594526 211.71630192 C106.93833144 207.73654091 106.94539849 203.75680043 106.95010376 199.77703857 C106.95555376 193.09920487 106.94838691 186.42147089 106.93408203 179.74365234 C106.91773017 172.02101881 106.92306534 164.29862259 106.93956125 156.57599473 C106.9531658 149.94144604 106.95510165 143.30696885 106.94724524 136.67241073 C106.94256647 132.71135931 106.94194997 128.75041957 106.95185471 124.78937531 C106.9605081 121.06940371 106.95453267 117.34973916 106.93717194 113.6298008 C106.93130209 111.61106923 106.94023461 109.59231173 106.94955444 107.57359314 C106.94109497 106.37636124 106.9326355 105.17912933 106.92391968 103.94561768 C106.9227886 102.90294361 106.92165752 101.86026955 106.92049217 100.7859993 C106.7220755 98.21423259 106.7220755 98.21423259 105.39076996 96.36802864 C102.74047573 94.69721179 100.72026474 94.82543836 97.59719849 94.82217407 C96.35500549 94.8137146 95.1128125 94.80525513 93.83297729 94.79653931 C92.45391715 94.80237246 91.0748583 94.80851698 89.69580078 94.81494141 C88.2453573 94.81087685 86.79491692 94.80553562 85.34448242 94.79901123 C81.40222434 94.78531543 77.46020137 94.79064616 73.51793909 94.80014849 C69.39361588 94.80773631 65.269313 94.80070165 61.14498901 94.79598999 C54.21625145 94.79052864 47.28760974 94.79773267 40.35888672 94.81201172 C32.35008839 94.82832613 24.34151933 94.82306012 16.3327266 94.8065325 C9.45789031 94.79291303 2.583123 94.79100061 -4.29172242 94.79884851 C-8.39821321 94.80352416 -12.50459631 94.80415314 -16.61108017 94.79423904 C-20.47381551 94.78556538 -24.33625584 94.79159842 -28.19895935 94.80892181 C-29.61590714 94.8128851 -31.0328798 94.81175528 -32.44981766 94.80513382 C-34.38563392 94.79692254 -36.3215045 94.80905071 -38.2572937 94.82217407 C-39.88163991 94.82387069 -39.88163991 94.82387069 -41.53880119 94.82560158 C-44.86439766 95.25582488 -46.72875565 96.29791981 -49.45703125 98.203125 C-50.05515625 98.615625 -50.65328125 99.028125 -51.26953125 99.453125 C-53.25161777 102.3740946 -52.80899801 104.76614887 -52.45703125 108.203125 C-50.85206865 110.46710996 -49.47456915 112.07868021 -47.5 113.95483398 C-46.70996078 114.74640648 -46.70996078 114.74640648 -45.90396118 115.55397034 C-44.16689746 117.28617496 -42.40641212 118.99229372 -40.64453125 120.69921875 C-39.43231652 121.89837144 -38.22164285 123.09908381 -37.01245117 124.30128479 C-33.83174843 127.45531045 -30.63058831 130.58774824 -27.42468262 133.71612549 C-24.15459909 136.91449399 -20.90433816 140.13286846 -17.65234375 143.34960938 C-11.27313185 149.65383582 -4.87212544 155.93543015 1.54296875 162.203125 C-2.21579995 166.68713952 -6.08506715 170.98107117 -10.23046875 175.109375 C-10.7579068 175.63776978 -11.28534485 176.16616455 -11.82876587 176.71057129 C-12.93507258 177.81755254 -14.04261912 178.92329604 -15.15136719 180.02783203 C-16.82471854 181.69583566 -18.49267242 183.36910173 -20.16015625 185.04296875 C-21.24577341 186.12792479 -22.3317009 187.21257043 -23.41796875 188.296875 C-23.90470062 188.7856311 -24.3914325 189.27438721 -24.89291382 189.7779541 C-27.53828782 192.40597575 -30.25005919 194.90484388 -33.08389282 197.32899475 C-37.76709656 201.41464846 -42.15184168 205.76479569 -46.53515625 210.16772461 C-47.83901024 211.47135956 -47.83901024 211.47135956 -49.16920471 212.80133057 C-51.52791178 215.16061064 -53.88439328 217.5220713 -56.23987198 219.88457179 C-58.71108226 222.36207765 -61.18516738 224.8367094 -63.65893555 227.31166077 C-68.33204872 231.98786909 -73.00260921 236.66661826 -77.67223454 241.34630924 C-82.99317865 246.67847119 -88.31699799 252.00775851 -93.64104843 257.33681858 C-104.58288844 268.28908181 -115.52115221 279.24490951 -126.45703125 290.203125 C-130.6574671 288.80297972 -132.14611815 285.79772202 -134.51953125 282.265625 C-135.00268799 281.55051758 -135.48584473 280.83541016 -135.98364258 280.09863281 C-152.031772 255.96492652 -162.10893981 229.81826733 -166.45703125 201.203125 C-166.62904053 200.11 -166.8010498 199.016875 -166.97827148 197.890625 C-173.00578231 151.46557476 -157.64358629 105.49773315 -130.33984375 68.3203125 C-128.44710335 65.87781348 -126.48778711 63.53207735 -124.45703125 61.203125 C-123.8242627 60.47198486 -123.8242627 60.47198486 -123.17871094 59.72607422 C-92.93482588 25.03832021 -46.63704389 0.23373494 0 0 Z " fill="#044D83" transform="translate(499.45703125,155.796875)"/>
<path d="M0 0 C9.27057782 5.27618095 14.1052905 12.40962149 17.4296875 22.3828125 C18.61426839 41.66623588 18.61426839 41.66623588 13.4296875 50.3828125 C12.8109375 51.45402344 12.8109375 51.45402344 12.1796875 52.546875 C7.6863877 59.36341504 0.92776671 63.70023826 -6.9453125 65.7578125 C-18.65373891 67.73670147 -29.06869289 66.4691498 -38.9453125 59.5703125 C-45.57992416 54.12965959 -49.13551989 47.85912574 -50.5703125 39.3828125 C-51.5710904 27.4711146 -50.73703654 17.11339943 -42.9453125 7.5078125 C-32.19969593 -3.74181985 -14.09128515 -6.12478351 0 0 Z " fill="#062038" transform="translate(618.5703125,728.6171875)"/>
<path d="M0 0 C2.4392745 1.89453533 4.74910359 3.8859362 7 6 C7.76183594 5.27683594 7.76183594 5.27683594 8.5390625 4.5390625 C15.43046995 -1.78451362 20.52451723 -3.4987363 29.89453125 -3.3125 C36.30120464 -2.66780331 41.19121069 -0.6548498 45.9375 3.6875 C50.78434509 11.47182696 51.42639964 18.79192212 51.29296875 27.81640625 C51.28872391 28.91347397 51.28447906 30.01054169 51.28010559 31.14085388 C51.26342927 34.61499478 51.22579717 38.08853699 51.1875 41.5625 C51.17243891 43.93033011 51.15875301 46.2981694 51.14648438 48.66601562 C51.11356187 54.44423804 51.06185597 60.22201782 51 66 C45.72 66 40.44 66 35 66 C34.98541748 64.60765137 34.97083496 63.21530273 34.95581055 61.78076172 C34.89773456 56.6032575 34.82050158 51.42618393 34.73754883 46.24902344 C34.70434334 44.01048789 34.67629784 41.77186951 34.65356445 39.53320312 C34.61993855 36.31083961 34.56761728 33.08923226 34.51171875 29.8671875 C34.50532883 28.87008759 34.4989389 27.87298767 34.49235535 26.84567261 C34.38009841 21.51176881 34.04398454 17.58384982 31 13 C27.25848898 10.46897784 23.4774294 10.7889556 19.15625 11.38671875 C15.76585851 12.35101488 14.09316112 14.25272603 12 17 C11.06210302 19.81369094 10.85068018 21.643105 10.79467773 24.56323242 C10.77473251 25.48396042 10.75478729 26.40468842 10.73423767 27.35331726 C10.70916893 28.83938225 10.70916893 28.83938225 10.68359375 30.35546875 C10.66281265 31.37224197 10.64203156 32.3890152 10.62062073 33.43659973 C10.55519952 36.68683063 10.49627463 39.93714277 10.4375 43.1875 C10.39430773 45.38998238 10.35069321 47.59245653 10.30664062 49.79492188 C10.19952568 55.19653117 10.09823711 60.59822225 10 66 C4.72 66 -0.56 66 -6 66 C-6.01458252 64.60765137 -6.02916504 63.21530273 -6.04418945 61.78076172 C-6.10226544 56.6032575 -6.17949842 51.42618393 -6.26245117 46.24902344 C-6.29565666 44.01048789 -6.32370216 41.77186951 -6.34643555 39.53320312 C-6.38006145 36.31083961 -6.43238272 33.08923226 -6.48828125 29.8671875 C-6.49467117 28.87008759 -6.5010611 27.87298767 -6.50764465 26.84567261 C-6.62012979 21.50092612 -6.97978359 17.6081556 -10 13 C-13.3533699 10.36520936 -16.87528406 10.57330525 -21 11 C-25.44642753 13.30872199 -27.94573023 15.44638712 -30 20 C-30.46815739 23.51400181 -30.48863605 27.00926882 -30.51171875 30.55078125 C-30.52966995 31.56472458 -30.54762115 32.57866791 -30.56611633 33.62333679 C-30.62017846 36.85301592 -30.65410244 40.08254757 -30.6875 43.3125 C-30.72067663 45.50587987 -30.75516661 47.6992403 -30.79101562 49.89257812 C-30.87590287 55.2616123 -30.94273403 60.63060304 -31 66 C-36.28 66 -41.56 66 -47 66 C-47 43.56 -47 21.12 -47 -2 C-42.05 -2 -37.1 -2 -32 -2 C-31.67 -0.02 -31.34 1.96 -31 4 C-29.700625 2.824375 -29.700625 2.824375 -28.375 1.625 C-20.51758752 -4.79552455 -8.67932556 -5.10548562 0 0 Z " fill="#041F38" transform="translate(675,597)"/>
<path d="M0 0 C7.99130915 4.47777488 13.52892561 10.9244958 16.47265625 19.58984375 C18.87374902 29.65758362 18.60286066 41.20763152 13.36328125 50.32421875 C7.31440711 58.70232536 0.77970279 63.81628065 -9.3828125 66.00390625 C-20.29098722 67.55411479 -29.72412657 65.86095015 -38.94921875 59.69921875 C-44.96354763 54.83341674 -48.65326605 47.70807221 -50.63671875 40.32421875 C-51.68586257 28.08827394 -51.02138446 17.33969665 -43.01171875 7.44921875 C-32.19328376 -3.87664752 -14.15411176 -6.12127747 0 0 Z " fill="#062038" transform="translate(356.63671875,728.67578125)"/>
<path d="M0 0 C5.61 0 11.22 0 17 0 C19.14920205 5.55636803 21.0040844 11.12013742 22.6640625 16.83984375 C22.90160248 17.64740616 23.13914246 18.45496857 23.38388062 19.28700256 C24.39031602 22.70865502 25.38986148 26.13230822 26.38964844 29.5559082 C27.12433991 32.06799516 27.86281893 34.57894601 28.6015625 37.08984375 C28.94062119 38.25845192 28.94062119 38.25845192 29.28652954 39.45066833 C30.10550568 43.01039466 30.10550568 43.01039466 32 46 C32.31227539 44.96182129 32.62455078 43.92364258 32.94628906 42.85400391 C34.11965176 38.95744342 35.29896884 35.06270534 36.47998047 31.16845703 C36.98776062 29.49120478 37.49398135 27.81347953 37.99853516 26.13525391 C40.6663128 17.26555357 43.35253396 8.52812297 47 0 C52.94 0 58.88 0 65 0 C66.65549134 4.94337413 68.31000799 9.88705402 69.9621582 14.83154297 C70.52312891 16.50946224 71.08464061 18.18720075 71.64672852 19.86474609 C74.55393441 28.54243265 77.44872627 37.20929544 80 46 C82.05078832 42.34559212 83.13548586 38.45796308 84.27734375 34.453125 C84.48935928 33.72309265 84.70137482 32.9930603 84.91981506 32.24090576 C85.59602735 29.91164207 86.26726781 27.58099091 86.9375 25.25 C87.6044027 22.93336517 88.27251544 20.61711486 88.94447327 18.30194092 C89.361573 16.86469973 89.77586372 15.42663904 90.18675232 13.98760986 C91.5676009 9.22705418 93.21459965 4.62453255 95 0 C100.61 0 106.22 0 112 0 C100.57978365 35.35950148 100.57978365 35.35950148 94.96380615 52.28582764 C94.52987678 53.59444738 94.09697319 54.90340772 93.6651001 56.21270752 C93.06753423 58.02301979 92.46553206 59.83186591 91.86328125 61.640625 C91.52594971 62.65672852 91.18861816 63.67283203 90.84106445 64.71972656 C90 67 90 67 89 68 C83.06 68 77.12 68 71 68 C66.05 52.16 61.1 36.32 56 20 C48.80758775 41.07717679 48.80758775 41.07717679 42.35864258 62.38842773 C41.09076371 66.90923629 41.09076371 66.90923629 40 68 C37.13732433 68.07325168 34.299281 68.09238205 31.4375 68.0625 C30.63119141 68.05798828 29.82488281 68.05347656 28.99414062 68.04882812 C26.99606244 68.03700518 24.99802217 68.01906914 23 68 C20.29222254 60.31663006 17.5883796 52.63189152 14.88944435 44.94541168 C13.63588199 41.37569475 12.38100802 37.80645067 11.12304688 34.23828125 C9.90738762 30.78994147 8.69529105 27.34036794 7.48557663 23.88993835 C7.02517767 22.57871146 6.56353176 21.26792165 6.10057449 19.95759583 C5.4486019 18.11159134 4.80161287 16.26382912 4.15478516 14.41601562 C3.78616364 13.36788696 3.41754211 12.3197583 3.03775024 11.23986816 C1.8538751 7.54379638 0.94129157 3.76516629 0 0 Z " fill="#062139" transform="translate(219,595)"/>
<path d="M0 0 C4.4349627 3.70214698 8.3735303 8.87708068 9.8203125 14.51953125 C9.8203125 16.82953125 9.8203125 19.13953125 9.8203125 21.51953125 C4.5403125 21.51953125 -0.7396875 21.51953125 -6.1796875 21.51953125 C-6.7571875 20.09640625 -7.3346875 18.67328125 -7.9296875 17.20703125 C-9.49966418 13.6856399 -10.61005454 11.30434773 -14.1796875 9.51953125 C-19.9658248 7.78120674 -25.97601196 7.67812786 -31.6171875 9.83203125 C-32.4628125 10.38890625 -33.3084375 10.94578125 -34.1796875 11.51953125 C-34.7778125 11.91140625 -35.3759375 12.30328125 -35.9921875 12.70703125 C-37.98541488 15.74932567 -38.38175592 18.96591429 -38.1796875 22.51953125 C-35.14203724 28.59483177 -28.41691883 30.41386497 -22.32617188 32.49414062 C-18.21707785 33.80486925 -14.10348908 35.09661791 -9.97460938 36.34375 C-1.45285188 39.05644643 5.81785732 42.82344636 10.8203125 50.51953125 C13.97578411 57.30379522 13.74109991 64.64504806 11.3828125 71.64453125 C8.0325875 79.12082283 2.07998044 83.82315515 -5.3671875 86.95703125 C-17.58361158 91.47487963 -31.35066156 90.76827444 -43.1796875 85.51953125 C-50.38659122 81.35764972 -54.19604158 76.53572051 -56.7734375 68.71875 C-57.1796875 66.51953125 -57.1796875 66.51953125 -57.1796875 59.51953125 C-51.5696875 59.51953125 -45.9596875 59.51953125 -40.1796875 59.51953125 C-39.7878125 61.08703125 -39.3959375 62.65453125 -38.9921875 64.26953125 C-37.65128883 68.78389011 -36.3554533 71.05690014 -32.1796875 73.51953125 C-29.14732973 75.03571014 -26.30043737 74.72987537 -22.9296875 74.76953125 C-20.97289062 74.80820312 -20.97289062 74.80820312 -18.9765625 74.84765625 C-13.766836 74.39743297 -10.53117312 72.83545146 -6.8046875 69.20703125 C-4.8279844 65.93786842 -4.6309936 64.28200371 -5.1796875 60.51953125 C-6.89613608 56.01385373 -9.51046966 54.58808127 -13.75 52.54101562 C-19.21141408 50.24493881 -24.9891246 48.82359366 -30.69140625 47.25195312 C-38.28210644 45.06097824 -45.41888144 42.31312018 -50.5546875 36.01953125 C-51.01617187 35.47296875 -51.47765625 34.92640625 -51.953125 34.36328125 C-56.06497242 28.18241507 -55.84467921 21.69803153 -55.1796875 14.51953125 C-53.46426571 7.28870268 -49.24621375 2.62429857 -43.1796875 -1.48046875 C-29.47980653 -8.88155387 -13.12154681 -8.7919676 0 0 Z " fill="#062038" transform="translate(203.1796875,574.48046875)"/>
<path d="M0 0 C5.62495704 4.44764045 10.7629953 9.29446292 12.15625 16.57421875 C12.40230473 18.75111958 12.5529384 20.93837398 12.6875 23.125 C7.0775 23.125 1.4675 23.125 -4.3125 23.125 C-4.9725 20.815 -5.6325 18.505 -6.3125 16.125 C-8.91720612 12.8058602 -12.17430149 10.88729973 -16.3125 10.125 C-22.02294701 9.58510319 -26.42173534 9.82657732 -31.3125 13.125 C-33.8752898 15.35922701 -35.13666056 16.86900401 -35.61328125 20.2734375 C-35.54340798 23.50910747 -35.29043792 26.16273088 -32.91064453 28.50439453 C-25.60577649 32.98344734 -17.55961536 35.1225484 -9.3984375 37.5546875 C-0.74673051 40.27046996 8.11829691 43.74214203 13.3125 51.625 C16.0518159 58.30371304 15.78961568 66.71653726 14.0625 73.625 C10.89963529 80.85440505 4.57060301 85.57521735 -2.5625 88.5 C-4.13385353 89.07549572 -5.71699832 89.62030049 -7.3125 90.125 C-7.91320312 90.31835938 -8.51390625 90.51171875 -9.1328125 90.7109375 C-20.95492664 92.95671545 -33.45746288 91.33851693 -43.4921875 84.57421875 C-48.38596095 80.67810297 -52.0638306 76.36834702 -53.3125 70.125 C-53.45167731 67.10286409 -53.4042928 64.15416244 -53.3125 61.125 C-48.0325 61.125 -42.7525 61.125 -37.3125 61.125 C-36.5390625 63.72375 -36.5390625 63.72375 -35.75 66.375 C-34.31505434 70.20645284 -33.47832586 71.96998887 -30.4375 74.8125 C-24.91809489 77.25492656 -18.1737036 76.87195017 -12.3125 76.125 C-6.76372322 73.78312469 -6.76372322 73.78312469 -3.3125 69.125 C-2.72724174 65.97406414 -2.39112882 63.21185372 -3.3125 60.125 C-7.36925486 55.9694505 -11.21367198 54.13369497 -16.8125 52.625 C-18.22974731 52.20900436 -19.64640456 51.79099375 -21.0625 51.37109375 C-21.77148438 51.16468262 -22.48046875 50.95827148 -23.2109375 50.74560547 C-34.67618277 47.35984182 -45.22721822 44.0785072 -51.3125 33.125 C-53.48130227 26.61859318 -53.66258175 16.99060109 -50.8125 10.625 C-45.89484987 2.68774014 -38.15340879 -1.71015545 -29.4609375 -4.4609375 C-19.26703539 -6.42558045 -8.9966014 -5.09241589 0 0 Z " fill="#062139" transform="translate(601.3125,572.875)"/>
<path d="M0 0 C6.24722809 4.1010715 9.8813259 8.82345074 12 16 C12.52409371 18.6966189 12.80014334 21.25197097 13 24 C7.72 24 2.44 24 -3 24 C-3.66 22.4325 -4.32 20.865 -5 19.25 C-7.27233945 14.73092493 -9.17578135 12.41385725 -13.89453125 10.5546875 C-20.10313964 8.91902444 -24.71297854 9.72040735 -30.30078125 12.87109375 C-32.58192273 14.38661073 -33.85053791 15.48555168 -35 18 C-35.51078731 22.01332885 -35.55607008 24.14709997 -33.32421875 27.5703125 C-30.7280433 30.28429759 -28.89571315 31.19569807 -25.375 32.4375 C-23.66183594 33.05625 -23.66183594 33.05625 -21.9140625 33.6875 C-19.10857384 34.64441086 -16.28816514 35.5470721 -13.4609375 36.4375 C-2.41582924 39.9356339 7.02894226 43.19695005 14 53 C16.16880227 59.50640682 16.35008175 69.13439891 13.5 75.5 C8.37371876 83.71633927 1.06276093 87.38249452 -8 90 C-8.63421875 90.19335938 -9.2684375 90.38671875 -9.921875 90.5859375 C-20.91909812 92.77711353 -33.37057602 91.15433922 -42.9375 85.25 C-49.14866912 80.69289222 -52.50357227 75.61817754 -54 68 C-54 65.69 -54 63.38 -54 61 C-48.39 61 -42.78 61 -37 61 C-36.34 63.64 -35.68 66.28 -35 69 C-32.72468519 72.48881604 -30.87531942 74.51500365 -27 76 C-19.00216186 76.78428059 -11.47219428 77.26806512 -5 72 C-2.53230109 68.29845163 -2.2255562 65.29311237 -3 61 C-7.1000401 54.7792495 -14.3882244 53.45856888 -21.13671875 51.32421875 C-22.695642 50.82928047 -24.25331082 50.33037668 -25.80981445 49.82788086 C-27.35432613 49.33070003 -28.90223652 48.84391366 -30.45385742 48.36938477 C-38.58652979 45.76431108 -45.02355509 42.02556929 -50 35 C-53.31313247 28.30349197 -53.36448839 19.31884942 -51.125 12.23046875 C-47.26019375 4.767833 -41.07134599 -0.43552014 -33.19921875 -3.3046875 C-22.48776441 -5.63269589 -9.66327442 -5.55473938 0 0 Z " fill="#062038" transform="translate(283,704)"/>
<path d="M0 0 C6.7393613 3.94607339 10.40096991 9.93141347 12.375 17.390625 C12.76160997 21.23083984 12.7259114 25.03426362 12.66796875 28.890625 C12.66372391 29.96691162 12.65947906 31.04319824 12.65510559 32.15209961 C12.63841025 35.5652037 12.60077443 38.97770155 12.5625 42.390625 C12.54744137 44.71483518 12.53375503 47.03905468 12.52148438 49.36328125 C12.48853659 55.03929351 12.43681718 60.71485672 12.375 66.390625 C7.095 66.390625 1.815 66.390625 -3.625 66.390625 C-3.625 64.080625 -3.625 61.770625 -3.625 59.390625 C-4.8625 60.5353125 -4.8625 60.5353125 -6.125 61.703125 C-12.33250273 66.78461561 -18.62839182 68.02629004 -26.5859375 67.8046875 C-33.0784288 66.92010642 -37.99652632 64.33684964 -42.1875 59.328125 C-45.31016595 52.94702501 -45.7758511 45.91087542 -43.5625 39.140625 C-38.18072644 31.50197866 -31.63299679 28.48339193 -22.625 26.390625 C-18.40014918 25.69194936 -14.15775164 25.21523107 -9.8984375 24.78515625 C-6.74650639 24.59178404 -6.74650639 24.59178404 -4.625 23.390625 C-4.12158525 18.1047701 -5.35589329 15.52508349 -8.625 11.390625 C-11.19064725 10.10780137 -13.13533069 10.18670547 -16 10.140625 C-16.95648437 10.11484375 -17.91296875 10.0890625 -18.8984375 10.0625 C-22.13688999 10.45222781 -23.41705935 10.99112786 -25.625 13.390625 C-25.955 15.370625 -26.285 17.350625 -26.625 19.390625 C-31.905 19.390625 -37.185 19.390625 -42.625 19.390625 C-42.625 12.16302958 -42.16098473 9.59334483 -37.625 4.390625 C-27.06510837 -4.19606306 -12.40322991 -5.24184121 0 0 Z " fill="#062139" transform="translate(779.625,596.609375)"/>
<path d="M0 0 C6.84684056 3.98361633 10.3963957 8.94651512 12.8039093 16.38067627 C13.92782572 21.02705279 13.80385347 25.62293218 13.73046875 30.37890625 C13.72622391 31.43158188 13.72197906 32.48425751 13.71760559 33.5688324 C13.70093768 36.90032542 13.6633075 40.23119268 13.625 43.5625 C13.60993781 45.83397558 13.5962521 48.10546073 13.58398438 50.37695312 C13.55107309 55.91820644 13.49937342 61.45899746 13.4375 67 C7.8275 67 2.2175 67 -3.5625 67 C-3.57708252 65.60241455 -3.59166504 64.2048291 -3.60668945 62.76489258 C-3.66470831 57.57436678 -3.74194163 52.38427315 -3.82495117 47.1940918 C-3.85818351 44.9487205 -3.88622069 42.703266 -3.90893555 40.45776367 C-3.94251202 37.22799257 -3.99483073 33.99898273 -4.05078125 30.76953125 C-4.05717117 29.76727005 -4.0635611 28.76500885 -4.07014465 27.7323761 C-4.18676678 20.86542547 -4.18676678 20.86542547 -7.5625 15 C-11.50116518 12.70244531 -15.07258876 12.61293869 -19.5625 13 C-23.98071612 14.27304532 -26.00772068 15.23858349 -28.73144531 18.97680664 C-31.22270286 23.62029121 -31.16501358 28.13550372 -31.171875 33.30859375 C-31.18841125 34.27531509 -31.20494751 35.24203644 -31.22198486 36.23805237 C-31.27029918 39.30460062 -31.29179921 42.37065353 -31.3125 45.4375 C-31.3406735 47.52541532 -31.37060285 49.61330774 -31.40234375 51.70117188 C-31.47605389 56.80074045 -31.5257298 61.90003671 -31.5625 67 C-36.8425 67 -42.1225 67 -47.5625 67 C-47.5625 44.89 -47.5625 22.78 -47.5625 0 C-42.6125 0 -37.6625 0 -32.5625 0 C-32.2325 1.98 -31.9025 3.96 -31.5625 6 C-30.675625 5.21625 -29.78875 4.4325 -28.875 3.625 C-21.63974011 -2.7689506 -8.95429199 -2.73211665 0 0 Z " fill="#08243C" transform="translate(693.5625,727)"/>
<path d="M0 0 C5.61471933 3.23748232 9.45225311 7.85675932 11.5 14 C11.5878506 15.73345807 11.61764814 17.47013269 11.61352539 19.20581055 C11.61344986 20.26668381 11.61337433 21.32755707 11.61329651 22.420578 C11.60813522 23.56440445 11.60297394 24.7082309 11.59765625 25.88671875 C11.5962413 27.05886429 11.59482635 28.23100983 11.59336853 29.43867493 C11.58776388 33.18830907 11.57521056 36.93788385 11.5625 40.6875 C11.5574856 43.22721268 11.55292259 45.7669263 11.54882812 48.30664062 C11.53779294 54.53778335 11.52052515 60.7688816 11.5 67 C6.22 67 0.94 67 -4.5 67 C-4.529729 64.85818237 -4.529729 64.85818237 -4.56005859 62.6730957 C-4.63618343 57.37083428 -4.72489066 52.0688448 -4.81738281 46.7668457 C-4.85564405 44.47295504 -4.89050189 42.17900497 -4.921875 39.88500977 C-4.96758706 36.5858844 -5.02557222 33.28716704 -5.0859375 29.98828125 C-5.09748871 28.96414627 -5.10903992 27.94001129 -5.12094116 26.88484192 C-5.14081085 25.92422348 -5.16068054 24.96360504 -5.18115234 23.97387695 C-5.19447601 23.13226517 -5.20779968 22.29065338 -5.2215271 21.42353821 C-5.54013403 18.65071517 -6.28018281 16.50519336 -7.5 14 C-9.28052246 13.08730263 -9.28052246 13.08730263 -11.5 13 C-12.42554688 12.90976562 -13.35109375 12.81953125 -14.3046875 12.7265625 C-21.1475144 12.34484812 -21.1475144 12.34484812 -27.125 15.1875 C-31.88910111 20.82919868 -31.82653424 26.01597543 -31.9140625 33.11328125 C-31.93342865 34.08283249 -31.9527948 35.05238373 -31.9727478 36.05131531 C-32.03237436 39.13828828 -32.0788614 42.22529888 -32.125 45.3125 C-32.16319534 47.40952118 -32.20224798 49.50652694 -32.2421875 51.60351562 C-32.33806209 56.73555131 -32.42215577 61.86766043 -32.5 67 C-37.78 67 -43.06 67 -48.5 67 C-48.5 44.56 -48.5 22.12 -48.5 -1 C-43.55 -1 -38.6 -1 -33.5 -1 C-33.17 0.98 -32.84 2.96 -32.5 5 C-31.46875 4.21625 -30.4375 3.4325 -29.375 2.625 C-21.20339957 -3.58541633 -9.23893144 -4.15751915 0 0 Z " fill="#052138" transform="translate(525.5,596)"/>
<path d="M0 0 C5.28 0 10.56 0 16 0 C16.01458252 1.29623291 16.02916504 2.59246582 16.04418945 3.92797852 C16.10235099 8.75702908 16.17958291 13.58562207 16.26245117 18.41430664 C16.29561661 20.50049387 16.32367443 22.58676902 16.34643555 24.6730957 C16.38013569 27.67957879 16.43245968 30.68526225 16.48828125 33.69140625 C16.49467117 34.61772354 16.5010611 35.54404083 16.50764465 36.49842834 C16.63277836 42.06399729 17.34701007 46.07389399 20 51 C24.06440646 54.06095341 29.14926597 53.4674483 34 53 C37.48734008 52.21578022 37.48734008 52.21578022 40 50 C42.83845423 43.89491866 43.46309996 38.70715734 43.51171875 32.03125 C43.52966995 31.11033569 43.54762115 30.18942139 43.56611633 29.24060059 C43.61988015 26.3271123 43.65400545 23.4137846 43.6875 20.5 C43.72070307 18.51299865 43.75519546 16.5260184 43.79101562 14.5390625 C43.87558684 9.69282486 43.94255891 4.84663204 44 0 C49.28 0 54.56 0 60 0 C60 22.11 60 44.22 60 67 C55.05 67 50.1 67 45 67 C45 64.69 45 62.38 45 60 C44.41992188 60.40992188 43.83984375 60.81984375 43.2421875 61.2421875 C42.46101563 61.78101563 41.67984375 62.31984375 40.875 62.875 C40.10929687 63.40867187 39.34359375 63.94234375 38.5546875 64.4921875 C31.71596493 68.52849776 24.7573697 68.88317472 17 68 C10.46091198 65.94107093 5.69173419 62.76833467 2 57 C-0.32472818 50.79749464 -0.25945022 44.94989374 -0.1953125 38.37890625 C-0.1924826 37.27900864 -0.18965271 36.17911102 -0.18673706 35.04588318 C-0.1755898 31.55130897 -0.15049498 28.05699606 -0.125 24.5625 C-0.11496316 22.18555059 -0.10583854 19.80859714 -0.09765625 17.43164062 C-0.07566827 11.62099389 -0.04117582 5.81054117 0 0 Z " fill="#041F36" transform="translate(413,727)"/>
<path d="M0 0 C4.72777107 4.9476674 6.6875 8.93887149 6.6875 15.8125 C1.7375 15.8125 -3.2125 15.8125 -8.3125 15.8125 C-8.96354167 14.0546875 -9.61458333 12.296875 -10.265625 10.5390625 C-11.65105079 8.25414385 -12.81183998 7.71256025 -15.3125 6.8125 C-17.76454585 6.46128585 -17.76454585 6.46128585 -20.3125 6.5 C-21.158125 6.48324219 -22.00375 6.46648438 -22.875 6.44921875 C-25.82922351 6.88951168 -27.19573646 7.72486623 -29.3125 9.8125 C-29.64647787 12.93836875 -29.64647787 12.93836875 -29.3125 15.8125 C-22.97139278 19.16360905 -16.69366168 21.44334904 -9.84765625 23.5234375 C-2.22094189 25.94007953 2.91422755 29.402677 7.6875 35.8125 C9.55194915 41.40584746 9.01122595 46.51681883 6.79296875 51.890625 C3.45992679 57.68517144 -2.2058979 60.66388074 -8.3125 62.8125 C-17.41996902 65.0013539 -27.77457306 64.92119522 -36.3125 60.8125 C-41.58494707 57.41150172 -44.95255799 53.78432529 -46.9375 47.8046875 C-47.3125 45.8125 -47.3125 45.8125 -47.3125 40.8125 C-42.0325 40.8125 -36.7525 40.8125 -31.3125 40.8125 C-30.6525 43.1225 -29.9925 45.4325 -29.3125 47.8125 C-27.11512238 50.1685504 -25.87081523 50.72762943 -22.69140625 51.2109375 C-18.56062067 51.17656203 -15.06561823 51.06353941 -11.125 49.75 C-8.92847769 47.80268643 -8.92847769 47.80268643 -9 44.125 C-9.1546875 42.4853125 -9.1546875 42.4853125 -9.3125 40.8125 C-14.37687856 37.66473251 -19.00038125 35.8569467 -24.75 34.375 C-33.24351426 32.02213488 -40.259898 29.49245505 -45.3125 21.8125 C-46.83854038 17.23437885 -47.23632676 12.47312107 -45.62890625 7.84375 C-42.45576299 1.83979429 -37.38967543 -2.49878478 -30.91015625 -4.68359375 C-20.22056248 -6.7572142 -9.18201725 -6.0635963 0 0 Z " fill="#072038" transform="translate(763.3125,731.1875)"/>
<path d="M0 0 C0 4.29 0 8.58 0 13 C-4.1015625 13.34179688 -4.1015625 13.34179688 -8.203125 13.68359375 C-11.67424746 14.04599612 -11.67424746 14.04599612 -15 15 C-16.00259507 18.00778521 -16.30314642 20.53820647 -16.5625 23.6875 C-16.706875 25.440625 -16.85125 27.19375 -17 29 C-11.72 29 -6.44 29 -1 29 C-1 33.29 -1 37.58 -1 42 C-6.28 42 -11.56 42 -17 42 C-17 60.15 -17 78.3 -17 97 C-22.28 97 -27.56 97 -33 97 C-33 78.85 -33 60.7 -33 42 C-36.96 42 -40.92 42 -45 42 C-45 37.71 -45 33.42 -45 29 C-41.04 29 -37.08 29 -33 29 C-33.05800781 27.9378125 -33.11601562 26.875625 -33.17578125 25.78125 C-33.73095852 11.55020604 -33.73095852 11.55020604 -29.70703125 6.55078125 C-20.92879506 -1.42395506 -11.15786615 -0.54695422 0 0 Z " fill="#05223B" transform="translate(415,566)"/>
<path d="M0 0 C5.28 0 10.56 0 16 0 C16 5.61 16 11.22 16 17 C21.61 17 27.22 17 33 17 C33 21.29 33 25.58 33 30 C27.39 30 21.78 30 16 30 C16.07403144 35.05456011 16.15688304 40.10735995 16.26245117 45.16113281 C16.29567681 46.87978965 16.32371616 48.59855499 16.34643555 50.31738281 C16.38002561 52.79018323 16.43234178 55.26199156 16.48828125 57.734375 C16.49467117 58.50118591 16.5010611 59.26799683 16.50764465 60.05804443 C16.59567671 63.26213376 16.80225743 65.6331355 18.3359375 68.47851562 C20.90661456 70.82893515 23.2780193 70.61497106 26.6875 70.75 C28.770625 70.8325 30.85375 70.915 33 71 C33 75.29 33 79.58 33 84 C29.83186566 84.1360363 26.66966778 84.23459384 23.5 84.3125 C22.613125 84.35439453 21.72625 84.39628906 20.8125 84.43945312 C14.28510672 84.55944197 10.02147281 83.24537173 5 79 C-0.37675564 72.49129581 -1.30713804 65.58061448 -1.1953125 57.44140625 C-1.1924826 56.65225327 -1.18965271 55.86310028 -1.18673706 55.05003357 C-1.17563057 52.55402828 -1.15054455 50.05839502 -1.125 47.5625 C-1.11495785 45.86003126 -1.10583417 44.15755684 -1.09765625 42.45507812 C-1.0757226 38.30324424 -1.04125977 34.15168498 -1 30 C-4.63 30 -8.26 30 -12 30 C-12 25.71 -12 21.42 -12 17 C-8.04 17 -4.08 17 0 17 C0 11.39 0 5.78 0 0 Z " fill="#08233B" transform="translate(495,710)"/>
<path d="M0 0 C5.28 0 10.56 0 16 0 C16 5.28 16 10.56 16 16 C21.61 16 27.22 16 33 16 C33 20.29 33 24.58 33 29 C27.39 29 21.78 29 16 29 C16.096999 34.05415853 16.199767 39.10750904 16.31738281 44.16113281 C16.35563327 45.87981011 16.39049303 47.59856638 16.421875 49.31738281 C16.46761128 51.7900004 16.52559084 54.26207613 16.5859375 56.734375 C16.59748871 57.50118591 16.60903992 58.26799683 16.62094116 59.05804443 C16.72449512 62.81275459 16.81615823 65.8564871 19 69 C22.17776909 71.23568711 24.93995645 71.21571532 28.75 71.125 C30.4825 71.08375 32.215 71.0425 34 71 C34 75.29 34 79.58 34 84 C30.83186566 84.1360363 27.66966778 84.23459384 24.5 84.3125 C23.613125 84.35439453 22.72625 84.39628906 21.8125 84.43945312 C15.22895484 84.56047418 11.11455913 83.16922508 6 79 C1.43320192 74.43320192 -0.06416604 69.18818696 -0.22705078 62.80883789 C-0.2267388 61.2800741 -0.21572035 59.75128385 -0.1953125 58.22265625 C-0.1924826 57.41130722 -0.18965271 56.59995819 -0.18673706 55.76402283 C-0.17562663 53.19669247 -0.15053971 50.62972322 -0.125 48.0625 C-0.11495836 46.31185403 -0.10583459 44.56120254 -0.09765625 42.81054688 C-0.07571734 38.54022746 -0.0412516 34.27017475 0 30 C-3.96 30 -7.92 30 -12 30 C-12 25.38 -12 20.76 -12 16 C-8.04 16 -4.08 16 0 16 C0 10.72 0 5.44 0 0 Z " fill="#082239" transform="translate(432,579)"/>
<path d="M0 0 C5.28 0 10.56 0 16 0 C16 5.28 16 10.56 16 16 C21.61 16 27.22 16 33 16 C33 20.29 33 24.58 33 29 C27.39 29 21.78 29 16 29 C16.0740234 34.19695328 16.15686898 39.3921921 16.26245117 44.58837891 C16.29568069 46.35554083 16.32371882 48.12280839 16.34643555 49.89013672 C16.38001831 52.43242351 16.43233451 54.97374408 16.48828125 57.515625 C16.49467117 58.30430969 16.5010611 59.09299438 16.50764465 59.90557861 C16.59455289 63.15666737 16.77409418 65.58535391 18.34448242 68.46777344 C21.34611375 71.2458649 24.30139891 71.11296885 28.1875 71.0625 C30.5696875 71.0315625 30.5696875 71.0315625 33 71 C33 75.29 33 79.58 33 84 C29.99900412 84.10890711 27.00203622 84.18773555 24 84.25 C23.16082031 84.28351563 22.32164062 84.31703125 21.45703125 84.3515625 C15.43399 84.44494298 11.03228086 83.38951772 6 80 C1.5817683 75.5817683 -0.07844443 70.8338122 -0.22705078 64.64697266 C-0.22673729 62.98596894 -0.21562634 61.32494202 -0.1953125 59.6640625 C-0.1924826 58.78471039 -0.18965271 57.90535828 -0.18673706 56.99935913 C-0.17559712 54.20776406 -0.15050411 51.4164971 -0.125 48.625 C-0.1149622 46.72526507 -0.10583775 44.82552508 -0.09765625 42.92578125 C-0.07567806 38.28372893 -0.0411911 33.64191998 0 29 C-3.96 29 -7.92 29 -12 29 C-12 24.71 -12 20.42 -12 16 C-8.04 16 -4.08 16 0 16 C0 10.72 0 5.44 0 0 Z " fill="#05223B" transform="translate(854,579)"/>
<path d="M0 0 C5.28 0 10.56 0 16 0 C16 30.69 16 61.38 16 93 C10.72 93 5.44 93 0 93 C0 62.31 0 31.62 0 0 Z " fill="#041E35" transform="translate(384,701)"/>
<path d="M0 0 C1.54897985 3.0979597 0.83239539 6.26216552 0.5625 9.625 C0.51029297 10.33140625 0.45808594 11.0378125 0.40429688 11.765625 C0.27458793 13.51079987 0.13795046 15.25545725 0 17 C-0.58007812 17.02578125 -1.16015625 17.0515625 -1.7578125 17.078125 C-7.20101925 17.47334133 -10.76924408 18.2729055 -15 22 C-18.31132016 27.16833426 -18.46786961 31.61297392 -18.51171875 37.5546875 C-18.52966995 38.45623566 -18.54762115 39.35778381 -18.56611633 40.28665161 C-18.6200415 43.14938768 -18.65405775 46.01195871 -18.6875 48.875 C-18.7206888 50.82293954 -18.7551799 52.77085736 -18.79101562 54.71875 C-18.87575772 59.47904726 -18.94265359 64.23929708 -19 69 C-24.28 69 -29.56 69 -35 69 C-35 46.56 -35 24.12 -35 1 C-29.72 1 -24.44 1 -19 1 C-18.67 3.64 -18.34 6.28 -18 9 C-17.56429687 8.51789062 -17.12859375 8.03578125 -16.6796875 7.5390625 C-11.62877092 2.18202976 -7.61671238 -0.4480419 0 0 Z " fill="#041E36" transform="translate(838,594)"/>
<path d="M0 0 C5.19973734 1.73324578 7.86183594 4.55426758 11 9 C14.25170789 15.65825901 13.87757885 23.79754922 11.875 30.8125 C10.16556702 35.34656747 7.70307946 37.91410045 4 41 C-2.0341684 43.01138947 -8.76505033 43.07756502 -14.5 40.3125 C-20.62130469 34.65029316 -22.98157516 29.55433498 -23.375 21.1875 C-23.22490311 15.03352738 -21.66207256 8.96087662 -17.46875 4.296875 C-11.82722604 -0.51501308 -7.17663707 -0.54892125 0 0 Z " fill="#F8F8F9" transform="translate(607,739)"/>
<path d="M0 0 C5.07823945 3.62731389 8.3508715 7.73601722 9.625 13.875 C10.29458437 21.55130648 10.07069707 29.40312538 5.1953125 35.73046875 C0.9557597 40.17039842 -2.22953472 41.04510838 -8.1875 41.1875 C-14.8811897 41.12290468 -17.93123322 39.31876678 -22.625 34.625 C-26.19067273 29.0218 -27.17936334 22.4584046 -26.375 15.875 C-24.85245348 9.25136696 -22.47254613 4.59708599 -17.3125 0.0625 C-11.68131815 -2.21393521 -5.70791538 -1.90263846 0 0 Z " fill="#F7F8F8" transform="translate(348.375,740.125)"/>
<path d="M0 0 C5.61 0 11.22 0 17 0 C17 22.11 17 44.22 17 67 C11.39 67 5.78 67 0 67 C0 44.89 0 22.78 0 0 Z " fill="#0B263E" transform="translate(540,727)"/>
<path d="M0 0 C5.28 0 10.56 0 16 0 C16 22.44 16 44.88 16 68 C10.72 68 5.44 68 0 68 C0 45.56 0 23.12 0 0 Z " fill="#05243D" transform="translate(341,595)"/>
<path d="M0 0 C0.3221077 6.03653699 0.56806924 10.83245145 -3 16 C-6.70584188 19.42790374 -9.29270575 20.87353376 -14.375 21.25 C-19.18819088 20.9180558 -21.64399719 19.35600281 -25 16 C-25.79465776 9.07512521 -25.79465776 9.07512521 -22.875 5.125 C-16.21969451 0.20586116 -8.07896382 0 0 0 Z " fill="#F3F4F5" transform="translate(776,631)"/>
<path d="M0 0 C3.4158985 0.7054573 4.97673981 1.72092477 7.15625 4.4453125 C8.11996554 7.17679029 8.46531758 9.56068179 8.15625 12.4453125 C6.39160939 15.30524728 5.16059303 16.94314099 2.15625 18.4453125 C-4.93333838 19.0264263 -4.93333838 19.0264263 -8.78125 16.5703125 C-11.18425013 14.09449419 -11.75427988 13.10142673 -12.21875 9.6953125 C-11.81749459 6.21776559 -10.92704968 4.17545175 -8.53515625 1.5859375 C-5.76030598 -0.28532412 -3.26817538 -0.25056011 0 0 Z " fill="#081F36" transform="translate(350.84375,566.5546875)"/>
<path d="M0 0 C3.22291569 2.73947834 3.90211554 4.3148088 4.5 8.5 C3.89723897 12.71932718 3.28870485 14.27278134 0 17 C-3.05613857 17.97499943 -5.80445974 18.30759211 -9 18 C-11.92143417 16.23496686 -13.47923817 15.04152365 -15 12 C-15.39069343 7.85864965 -15.43382227 5.68813188 -13.1875 2.125 C-9.26343143 -1.68695233 -5.04030503 -1.46037007 0 0 Z " fill="#061E35" transform="translate(554,699)"/>
<path d="M0 0 C5.28 0 10.56 0 16 0 C16 22.44 16 44.88 16 68 C10.72 68 5.44 68 0 68 C0 45.56 0 23.12 0 0 Z M2 2 C2 23.12 2 44.24 2 66 C6.29 66 10.58 66 15 66 C15 44.88 15 23.76 15 2 C10.71 2 6.42 2 2 2 Z " fill="#051226" transform="translate(341,595)"/>
<path d="M0 0 C4.95 0 9.9 0 15 0 C15 4.29 15 8.58 15 13 C9.72 13 4.44 13 -1 13 C-1 31.15 -1 49.3 -1 68 C-6.28 68 -11.56 68 -17 68 C-17 49.85 -17 31.7 -17 13 C-16.67 13 -16.34 13 -16 13 C-16 30.49 -16 47.98 -16 66 C-11.71 66 -7.42 66 -3 66 C-3.00523682 64.39970947 -3.01047363 62.79941895 -3.01586914 61.15063477 C-3.03391114 55.23739171 -3.04542907 49.32415111 -3.05493164 43.41088867 C-3.0599737 40.84708243 -3.06680714 38.28327909 -3.07543945 35.71948242 C-3.08751064 32.04344979 -3.09322942 28.36745502 -3.09765625 24.69140625 C-3.10281754 23.53725723 -3.10797882 22.38310822 -3.11329651 21.19398499 C-3.11337204 20.13296066 -3.11344757 19.07193634 -3.11352539 17.97875977 C-3.115746 17.03944107 -3.11796661 16.10012238 -3.12025452 15.13233948 C-3 13 -3 13 -2 12 C0.69654854 11.92680379 3.36691458 11.90757463 6.0625 11.9375 C7.20041992 11.94426758 7.20041992 11.94426758 8.36132812 11.95117188 C10.24091871 11.9629932 12.12046899 11.98092922 14 12 C14 8.7 14 5.4 14 2 C9.05 2 4.1 2 -1 2 C-0.67 1.34 -0.34 0.68 0 0 Z " fill="#020D20" transform="translate(399,595)"/>
<path d="M0 0 C4.95 0 9.9 0 15 0 C15 0.33 15 0.66 15 1 C10.38 1 5.76 1 1 1 C1 22.12 1 43.24 1 65 C5.29 65 9.58 65 14 65 C13.98952637 63.84999512 13.97905273 62.69999023 13.96826172 61.51513672 C13.93195387 57.23245377 13.90906033 52.94978433 13.89013672 48.66699219 C13.88010369 46.81638294 13.86647414 44.96578945 13.84912109 43.11523438 C13.82475392 40.4491791 13.81348977 37.78333416 13.8046875 35.1171875 C13.79436493 34.29507782 13.78404236 33.47296814 13.77340698 32.62594604 C13.7725139 28.01244664 14.23443276 24.34366196 16 20 C16.94987878 22.84963633 17.09747457 24.44237491 17.02172852 27.37963867 C16.99158409 28.70066841 16.99158409 28.70066841 16.96083069 30.04838562 C16.92027809 31.46882927 16.92027809 31.46882927 16.87890625 32.91796875 C16.85529526 33.89034988 16.83168427 34.86273102 16.80735779 35.86457825 C16.73074376 38.97236817 16.64670945 42.0799075 16.5625 45.1875 C16.50927707 47.2936075 16.45653668 49.39972726 16.40429688 51.50585938 C16.27513159 56.67073181 16.1393108 61.83539166 16 67 C10.72 67 5.44 67 0 67 C0 44.89 0 22.78 0 0 Z " fill="#000716" transform="translate(646,727)"/>
<path d="M0 0 C0.96555925 2.89667774 1.09561506 4.56672261 1.02172852 7.56323242 C0.99158409 8.94432442 0.99158409 8.94432442 0.96083069 10.35331726 C0.92027809 11.83938225 0.92027809 11.83938225 0.87890625 13.35546875 C0.85529526 14.37224197 0.83168427 15.3890152 0.80735779 16.43659973 C0.73072902 19.68704212 0.64670099 22.9372458 0.5625 26.1875 C0.50927855 28.38996224 0.45653815 30.59243617 0.40429688 32.79492188 C0.27511484 38.19676601 0.13929608 43.5984076 0 49 C-5.28 49 -10.56 49 -16 49 C-16 33.16 -16 17.32 -16 1 C-15.67 1 -15.34 1 -15 1 C-15 16.18 -15 31.36 -15 47 C-10.71 47 -6.42 47 -2 47 C-2.00523682 45.95658447 -2.01047363 44.91316895 -2.01586914 43.83813477 C-2.03410607 39.92994053 -2.04549969 36.02174997 -2.05493164 32.11352539 C-2.05992943 30.42894862 -2.06672989 28.74437612 -2.07543945 27.05981445 C-2.08770622 24.62450094 -2.09327398 22.18924526 -2.09765625 19.75390625 C-2.10281754 19.01290176 -2.10797882 18.27189728 -2.11329651 17.50843811 C-2.11468941 4.22937881 -2.11468941 4.22937881 0 0 Z " fill="#040E20" transform="translate(685,614)"/>
<path d="M0 0 C0.66 0 1.32 0 2 0 C2 21.78 2 43.56 2 66 C-2.95 66 -7.9 66 -13 66 C-13 65.34 -13 64.68 -13 64 C-8.71 64 -4.42 64 0 64 C0 42.88 0 21.76 0 0 Z " fill="#0C1C33" transform="translate(555,728)"/>
<path d="M0 0 C5.28 0 10.56 0 16 0 C16 4.29 16 8.58 16 13 C10.39 13 4.78 13 -1 13 C-0.9718653 18.1614377 -0.92870236 23.31826817 -0.84741211 28.47851562 C-0.82428032 30.23200228 -0.80984771 31.98562692 -0.80444336 33.73925781 C-0.79511801 36.26714584 -0.75405365 38.79287817 -0.70703125 41.3203125 C-0.7109639 42.09867462 -0.71489655 42.87703674 -0.71894836 43.6789856 C-0.56656869 49.42191405 0.94229122 51.93946748 5 56 C2.29750549 55.62724214 1.20064865 55.21551151 -0.6875 53.1875 C-3.35447337 48.74254439 -3.14705634 44.27291335 -3.1328125 39.20703125 C-3.13376923 38.46039719 -3.13472595 37.71376312 -3.13571167 36.94450378 C-3.13639044 35.37193721 -3.13455729 33.79936779 -3.13037109 32.22680664 C-3.12499588 29.81064644 -3.13033784 27.39467023 -3.13671875 24.97851562 C-3.13605836 23.45052042 -3.13477801 21.92252533 -3.1328125 20.39453125 C-3.13483673 19.66853226 -3.13686096 18.94253326 -3.13894653 18.1945343 C-3.11496698 13.11496698 -3.11496698 13.11496698 -2 12 C0.69654854 11.92680379 3.36691458 11.90757463 6.0625 11.9375 C7.20041992 11.94426758 7.20041992 11.94426758 8.36132812 11.95117188 C10.24091871 11.9629932 12.12046899 11.98092922 14 12 C14 8.7 14 5.4 14 2 C9.05 2 4.1 2 -1 2 C-0.67 1.34 -0.34 0.68 0 0 Z " fill="#010B21" transform="translate(871,595)"/>
<path d="M0 0 C2.5530731 2.22006357 3.3760509 3.69964805 4 7 C4.08337107 8.46524039 4.11784187 9.93376319 4.11352539 11.40136719 C4.11344986 12.2619574 4.11337433 13.12254761 4.11329651 14.00921631 C4.10813522 14.92914368 4.10297394 15.84907104 4.09765625 16.796875 C4.0962413 17.74564514 4.09482635 18.69441528 4.09336853 19.67193604 C4.08777742 22.69798962 4.07522652 25.72396883 4.0625 28.75 C4.05748385 30.80338435 4.05292115 32.85676986 4.04882812 34.91015625 C4.03781089 39.94013276 4.02055233 44.97005378 4 50 C8.29 50 12.58 50 17 50 C17 50.66 17 51.32 17 52 C12.05 52 7.1 52 2 52 C1.97494385 50.56688477 1.9498877 49.13376953 1.92407227 47.65722656 C1.82992631 42.34203086 1.72972297 37.02696365 1.62768555 31.71191406 C1.58436394 29.41116338 1.54268687 27.11038112 1.50268555 24.80957031 C1.44491605 21.50315839 1.38124051 18.196905 1.31640625 14.890625 C1.29969376 13.86132874 1.28298126 12.83203247 1.26576233 11.77154541 C1.24581711 10.81085144 1.22587189 9.85015747 1.20532227 8.86035156 C1.18977798 8.01651917 1.1742337 7.17268677 1.15821838 6.30328369 C1.00592429 4.08624356 0.61217912 2.13149621 0 0 Z " fill="#16263B" transform="translate(519,611)"/>
<path d="M0 0 C2 2 2 2 2.24050903 4.10073853 C2.23606781 4.96677704 2.23162659 5.83281555 2.22705078 6.72509766 C2.22682419 8.19639633 2.22682419 8.19639633 2.22659302 9.69741821 C2.21627045 10.75891083 2.20594788 11.82040344 2.1953125 12.9140625 C2.1924826 13.99883881 2.18965271 15.08361511 2.18673706 16.20126343 C2.17551578 19.67595313 2.15040762 23.15038782 2.125 26.625 C2.11497272 28.97655879 2.10584643 31.3281216 2.09765625 33.6796875 C2.07557007 39.4532237 2.0410269 45.22656857 2 51 C-4.93 50.505 -4.93 50.505 -12 50 C-12 49.67 -12 49.34 -12 49 C-8.04 49 -4.08 49 0 49 C0 32.83 0 16.66 0 0 Z " fill="#182436" transform="translate(790,612)"/>
<path d="M0 0 C4.95 0 9.9 0 15 0 C15 5.61 15 11.22 15 17 C20.61 17 26.22 17 32 17 C32 21.29 32 25.58 32 30 C26.06 29.67 20.12 29.34 14 29 C14 28.67 14 28.34 14 28 C19.28 28 24.56 28 30 28 C30 24.7 30 21.4 30 18 C24.72 18 19.44 18 14 18 C14 12.39 14 6.78 14 1 C9.38 1 4.76 1 0 1 C0 0.67 0 0.34 0 0 Z " fill="#1C2A3D" transform="translate(496,710)"/>
<path d="M0 0 C5.28 0 10.56 0 16 0 C16 0.33 16 0.66 16 1 C11.05 1 6.1 1 1 1 C1.01160156 2.14339844 1.02320313 3.28679688 1.03515625 4.46484375 C1.04453288 5.95572754 1.05363321 7.44661309 1.0625 8.9375 C1.07087891 9.69224609 1.07925781 10.44699219 1.08789062 11.22460938 C1.09652441 13.14994313 1.05224333 15.07535581 1 17 C0 18 0 18 -2.28515625 18.09765625 C-4.85677083 18.06510417 -7.42838542 18.03255208 -10 18 C-10 21.3 -10 24.6 -10 28 C-6.7 28 -3.4 28 0 28 C0 28.33 0 28.66 0 29 C-3.96 29 -7.92 29 -12 29 C-12 24.71 -12 20.42 -12 16 C-8.04 16 -4.08 16 0 16 C0 10.72 0 5.44 0 0 Z " fill="#050C1C" transform="translate(854,579)"/>
<path d="M0 0 C5.28 0 10.56 0 16 0 C16 3.96 16 7.92 16 12 C15.34 12 14.68 12 14 12 C14 8.7 14 5.4 14 2 C9.05 2 4.1 2 -1 2 C-0.67 1.34 -0.34 0.68 0 0 Z " fill="#04122C" transform="translate(871,595)"/>
<path d="M0 0 C5.61 0 11.22 0 17 0 C17 0.66 17 1.32 17 2 C13.04 2 9.08 2 5 2 C4.67 4.64 4.34 7.28 4 10 C2 8 2 8 0 0 Z " fill="#031027" transform="translate(219,595)"/>
<path d="M0 0 C0.33 0 0.66 0 1 0 C1 4.62 1 9.24 1 14 C4.35776713 14.83944178 7.32258026 15.27688169 10.75 15.5625 C11.73484375 15.64628906 12.7196875 15.73007812 13.734375 15.81640625 C14.48203125 15.87699219 15.2296875 15.93757812 16 16 C16 16.33 16 16.66 16 17 C10.39 17 4.78 17 -1 17 C-0.67 11.39 -0.34 5.78 0 0 Z " fill="#DFE3E6" transform="translate(512,710)"/>
<path d="M0 0 C4.62 0 9.24 0 14 0 C14 2.31 14 4.62 14 7 C13.34 6.34 12.68 5.68 12 5 C12 4.01 12 3.02 12 2 C8.04 2 4.08 2 0 2 C0 1.34 0 0.68 0 0 Z " fill="#010E28" transform="translate(478,595)"/>
<path d="M0 0 C5.28 0 10.56 0 16 0 C15.67 0.99 15.34 1.98 15 3 C10.38 3 5.76 3 1 3 C0.67 2.01 0.34 1.02 0 0 Z " fill="#122B43" transform="translate(256,792)"/>
<path d="M0 0 C4.62 0 9.24 0 14 0 C13.67 0.99 13.34 1.98 13 3 C8.71 3 4.42 3 0 3 C0 2.01 0 1.02 0 0 Z " fill="#142C43" transform="translate(737,792)"/>
<path d="M0 0 C0.66 1.32 1.32 2.64 2 4 C-2.95 4 -7.9 4 -13 4 C-13 3.34 -13 2.68 -13 2 C-8.71 2 -4.42 2 0 2 C0 1.34 0 0.68 0 0 Z " fill="#01122B" transform="translate(555,790)"/>
<path d="M0 0 C0.33 0 0.66 0 1 0 C1.33 3.96 1.66 7.92 2 12 C-2.95 12 -7.9 12 -13 12 C-13 11.67 -13 11.34 -13 11 C-6.565 10.505 -6.565 10.505 0 10 C0 6.7 0 3.4 0 0 Z " fill="#040B1B" transform="translate(885,651)"/>
<path d="M0 0 C-0.928125 0.4021875 -0.928125 0.4021875 -1.875 0.8125 C-4.2995233 1.95556848 -4.2995233 1.95556848 -6 5 C-6.99 5 -7.98 5 -9 5 C-9.99 8.465 -9.99 8.465 -11 12 C-11.75 10.375 -11.75 10.375 -12 8 C-9.34742453 3.00091546 -6.0730723 -2.02435743 0 0 Z " fill="#071023" transform="translate(395,569)"/>
<path d="M0 0 C0.99 0 1.98 0 3 0 C3 3.96 3 7.92 3 12 C2.34 12 1.68 12 1 12 C0.67 8.04 0.34 4.08 0 0 Z " fill="#010D25" transform="translate(525,781)"/>
<path d="M0 0 C2.125 0.375 2.125 0.375 4 1 C2.75312408 1.96239452 1.50235031 2.91974009 0.25 3.875 C-0.44609375 4.40867188 -1.1421875 4.94234375 -1.859375 5.4921875 C-3.84722603 6.89238914 -5.79843386 7.97855265 -8 9 C-7.04270084 7.87411986 -6.08412105 6.7493285 -5.125 5.625 C-4.59132813 4.99851563 -4.05765625 4.37203125 -3.5078125 3.7265625 C-2.38567993 2.44163349 -1.20628025 1.20628025 0 0 Z " fill="#15487F" transform="translate(389,202)"/>
<path d="M0 0 C0 0.99 0 1.98 0 3 C-3.63 3 -7.26 3 -11 3 C-7.72430636 -0.27569364 -4.48909309 -0.12469703 0 0 Z " fill="#1D2535" transform="translate(838,594)"/>
<path d="M0 0 C0.66 0.33 1.32 0.66 2 1 C2 3.31 2 5.62 2 8 C1.01 8.33 0.02 8.66 -1 9 C-1.125 2.25 -1.125 2.25 0 0 Z " fill="#EAEDEF" transform="translate(248,720)"/>
<path d="M0 0 C1.231394 3.69418201 0.64432764 6.2056261 0 10 C-0.66 10 -1.32 10 -2 10 C-1.125 2.25 -1.125 2.25 0 0 Z " fill="#063C77" transform="translate(340,281)"/>
<path d="M0 0 C2.64 0.33 5.28 0.66 8 1 C7.01 2.485 7.01 2.485 6 4 C4.68 3.67 3.36 3.34 2 3 C2 2.34 2 1.68 2 1 C1.34 0.67 0.68 0.34 0 0 Z " fill="#16293D" transform="translate(546,698)"/>
</svg>
